<svg width="28" height="27" viewBox="0 0 28 27" fill="none" xmlns="http://www.w3.org/2000/svg">
<g clip-path="url(#clip0)">
<path d="M5.40779 -0.000488281C3.1745 -1.36858e-05 1.35791 1.81658 1.35791 4.04987C1.35791 6.28316 3.1745 8.09933 5.40779 8.09933C7.64108 8.09933 9.45767 6.28273 9.45767 4.04945C9.45767 1.81611 7.64108 -0.000488281 5.40779 -0.000488281ZM5.40779 6.74979C3.91656 6.74979 2.70787 5.5411 2.70787 4.04987C2.70787 2.55864 3.91656 1.34995 5.40779 1.34995C6.89902 1.34995 8.10771 2.55864 8.10771 4.04987C8.10771 5.5411 6.89908 6.74979 5.40779 6.74979Z" fill="white"/>
<path d="M25.6552 6.74951H12.1556C11.41 6.74951 10.8057 7.35383 10.8057 8.09947V9.1304L12.1556 9.80538V8.09947H25.6552V18.8987H12.1556V17.294L10.8057 16.957V18.8987C10.8057 19.6443 11.41 20.2486 12.1556 20.2486H17.7139L14.2769 25.9765C14.0843 26.2956 14.1886 26.7109 14.509 26.9022C14.8254 27.0961 15.2421 26.9917 15.4347 26.67L18.2305 22.0099V26.3231C18.2305 26.6961 18.5324 26.998 18.9054 26.998C19.2785 26.998 19.5804 26.6961 19.5804 26.3231V22.0099L22.3766 26.6696C22.5031 26.8806 22.7271 26.9976 22.9553 26.9976C23.0741 26.9976 23.1938 26.9674 23.3022 26.9013C23.6227 26.7101 23.7266 26.2947 23.5344 25.9757L20.0974 20.2478H25.6552C26.4008 20.2478 27.0051 19.6435 27.0051 18.8978V8.09947C27.0052 7.35383 26.4009 6.74951 25.6552 6.74951Z" fill="white"/>
<path d="M23.6038 10.6133C23.5021 10.2547 23.1291 10.0436 22.7695 10.1507L14.4398 12.5307C14.3426 12.4367 14.2337 12.3543 14.1095 12.2918L8.70968 9.59186C8.52206 9.49826 8.3155 9.44922 8.10579 9.44922H2.70594C2.05348 9.44922 1.49456 9.91585 1.3776 10.5576L0.0276419 17.9819C-0.0439165 18.3756 0.062762 18.781 0.319255 19.0884C0.575747 19.3957 0.955529 19.5734 1.35603 19.5734H2.21864L2.71048 25.7549C2.76627 26.4569 3.35171 26.9978 4.05596 26.9978H6.75588C7.44388 26.9978 8.02168 26.4807 8.09772 25.7972L9.27714 15.1833L13.1785 16.1585C13.2865 16.1855 13.3963 16.1985 13.5057 16.1985C13.8036 16.1985 14.0965 16.0999 14.3364 15.9127C14.664 15.6571 14.8556 15.2643 14.8556 14.8485V13.8149L23.1412 11.4475C23.4999 11.3459 23.7068 10.9715 23.6038 10.6133ZM13.5056 14.849L8.10579 13.499L6.75583 25.6483H4.0559L3.46551 18.2235H1.35598L2.70594 10.7992H4.73088V14.9057C4.73088 15.2788 5.03283 15.5807 5.40586 15.5807C5.7789 15.5807 6.08084 15.2788 6.08084 14.9057V10.7991H8.10579L13.5056 13.499V14.849Z" fill="white"/>
</g>
<defs>
<clipPath id="clip0">
<rect width="27" height="27" fill="white" transform="translate(0.00537109 -0.000488281)"/>
</clipPath>
</defs>
</svg>
