<svg width="108" height="29" viewBox="0 0 108 29" fill="none" xmlns="http://www.w3.org/2000/svg">
<path d="M49.3926 6.67358C45.3301 6.67358 42.791 9.47632 42.791 13.9587C42.791 18.4412 45.3301 21.2341 49.3926 21.2341C53.4453 21.2341 55.9941 18.4412 55.9941 13.9587C55.9941 9.47632 53.4453 6.67358 49.3926 6.67358ZM49.3926 8.59741C52.0684 8.59741 53.748 10.6677 53.748 13.9587C53.748 17.24 52.0684 19.3103 49.3926 19.3103C46.7168 19.3103 45.0273 17.24 45.0273 13.9587C45.0273 10.6677 46.7168 8.59741 49.3926 8.59741ZM57.8301 20.9998H59.9395V15.0134C59.9395 13.4216 60.8965 12.3669 62.3809 12.3669C63.8457 12.3669 64.5684 13.2166 64.5684 14.7595V20.9998H66.6875V14.3494C66.6875 11.9958 65.3887 10.5505 63.123 10.5505C61.541 10.5505 60.4473 11.2732 59.8906 12.4451H59.8418V10.7263H57.8301V20.9998ZM75.5352 17.9822C75.252 18.8806 74.3633 19.4861 73.1621 19.4861C71.4727 19.4861 70.3984 18.3044 70.3984 16.5173V16.3904H77.6543V15.6677C77.6543 12.5525 75.877 10.5408 73.0254 10.5408C70.125 10.5408 68.2695 12.6892 68.2695 15.9119C68.2695 19.1541 70.0957 21.1951 73.1133 21.1951C75.4668 21.1951 77.2441 19.8572 77.5371 17.9822H75.5352ZM73.0254 12.24C74.5 12.24 75.4961 13.3435 75.5449 14.9158H70.4082C70.5156 13.363 71.5508 12.24 73.0254 12.24ZM83.1523 21.1755C84.6465 21.1755 85.8184 20.4236 86.4238 19.2517H86.4629V20.9998H88.5137V6.90796H86.3945V12.4353H86.3555C85.7793 11.3025 84.6074 10.5603 83.1328 10.5603C80.5547 10.5603 78.8359 12.6208 78.8359 15.863C78.8359 19.1052 80.5547 21.1755 83.1523 21.1755ZM83.709 12.3376C85.3301 12.3376 86.4141 13.7341 86.4141 15.863C86.4141 18.0115 85.3301 19.3884 83.709 19.3884C82.0391 19.3884 80.9941 18.031 80.9941 15.863C80.9941 13.7048 82.0391 12.3376 83.709 12.3376ZM91.707 24.8279C93.8359 24.8279 94.8516 24.0271 95.7305 21.5369L99.5781 10.7263H97.3516L94.7539 19.0857H94.7148L92.1172 10.7263H89.832L93.543 21.0095C93.543 21.0193 93.3574 21.6248 93.3574 21.6443C93.0352 22.699 92.5078 23.1091 91.5312 23.1091C91.3555 23.1091 91.0039 23.1091 90.8477 23.0701V24.7791C91.0039 24.8083 91.5312 24.8279 91.707 24.8279Z" fill="#04004D"/>
<path fill-rule="evenodd" clip-rule="evenodd" d="M15.2683 18.147C17.9501 22.7666 23.8898 24.3494 28.5349 21.6823L29.4058 23.1824C23.9276 26.3278 16.9227 24.4612 13.7599 19.0131L15.2683 18.147Z" fill="#FF5722"/>
<path d="M31.9999 23.0027C31.9999 25.1203 30.2738 26.837 28.1445 26.837C26.0152 26.837 24.2891 25.1203 24.2891 23.0027C24.2891 20.8851 26.0152 19.1685 28.1445 19.1685C30.2738 19.1685 31.9999 20.8851 31.9999 23.0027Z" fill="#FF5722"/>
<path fill-rule="evenodd" clip-rule="evenodd" d="M0 13.0343C0 5.92333 5.72484 0.142133 12.841 0.000488281C11.8929 1.83714 11.245 3.84619 10.9597 5.96652C7.76576 6.77207 5.3976 9.71642 5.3976 13.2253C5.3976 17.3546 8.67725 20.7021 12.7229 20.7021C13.2713 20.7021 13.8057 20.6406 14.3197 20.524C15.5323 22.3824 17.2227 23.7684 19.1354 24.6142C17.331 25.5449 15.2815 26.0708 13.1084 26.0708C5.86884 26.0708 0 20.2341 0 13.0343ZM20.3993 23.8699C23.9076 21.5305 26.2169 17.5506 26.2169 13.0343C26.2169 7.45022 22.6866 2.68617 17.7245 0.82912C16.6559 2.47419 15.9238 4.34751 15.6225 6.35715C18.226 7.50375 20.0482 10.1473 20.0482 13.2253C20.0482 16.3626 18.1551 19.0486 15.4712 20.1581C16.7136 21.9363 18.4573 23.2005 20.3993 23.8699Z" fill="#FF5722"/>
</svg>
