<svg width="28" height="28" viewBox="0 0 28 28" fill="none" xmlns="http://www.w3.org/2000/svg">
<path fill-rule="evenodd" clip-rule="evenodd" d="M20.7363 22.5362C21.2333 23.0332 22.0392 23.0332 22.5362 22.5362C23.0332 22.0392 23.0332 21.2333 22.5362 20.7363L15.7998 13.9999L22.5362 7.26352C23.0332 6.76648 23.0332 5.96064 22.5362 5.46361C22.0392 4.96658 21.2333 4.96658 20.7363 5.46361L13.9999 12.2L7.26351 5.46359C6.76647 4.96656 5.96063 4.96656 5.46359 5.46359C4.96656 5.96062 4.96656 6.76647 5.46359 7.26351L12.2 13.9999L5.46359 20.7363C4.96656 21.2333 4.96656 22.0392 5.46359 22.5362C5.96063 23.0333 6.76647 23.0333 7.26351 22.5362L13.9999 15.7998L20.7363 22.5362Z" fill="#0D0D0D"/>
</svg>
