<svg width="12" height="14" viewBox="0 0 12 14" fill="none" xmlns="http://www.w3.org/2000/svg">
<path d="M11.2216 8.19632C11.0612 6.10838 10.0891 4.79995 9.23145 3.64533C8.43733 2.57641 7.75146 1.65334 7.75146 0.291678C7.75146 0.182303 7.69022 0.0823342 7.59309 0.0322131C7.49566 -0.0182088 7.37861 -0.00995096 7.29004 0.0544162C6.00204 0.976065 4.92738 2.52944 4.55197 4.01158C4.29136 5.04345 4.25688 6.20348 4.25204 6.96962C3.06259 6.71557 2.79314 4.93637 2.7903 4.91698C2.7769 4.8247 2.72052 4.74439 2.63848 4.70053C2.55561 4.65724 2.45818 4.6541 2.37415 4.69569C2.31178 4.72588 0.843176 5.47209 0.757726 8.45149C0.751738 8.55061 0.751465 8.65003 0.751465 8.74943C0.751465 11.644 3.10672 13.9991 6.00146 13.9991C6.00546 13.9993 6.00972 13.9999 6.01314 13.9991C6.01429 13.9991 6.01541 13.9991 6.01683 13.9991C8.90447 13.9908 11.2515 11.6388 11.2515 8.74943C11.2515 8.60388 11.2216 8.19632 11.2216 8.19632ZM6.00146 13.4158C5.03645 13.4158 4.25146 12.5796 4.25146 11.5517C4.25146 11.5167 4.25119 11.4813 4.25373 11.4381C4.26541 11.0046 4.34774 10.7087 4.43803 10.5118C4.60723 10.8753 4.90971 11.2094 5.40105 11.2094C5.56227 11.2094 5.69273 11.0789 5.69273 10.9177C5.69273 10.5025 5.70128 10.0234 5.80467 9.59104C5.89668 9.20768 6.11655 8.79982 6.39513 8.47287C6.51903 8.89725 6.76058 9.24071 6.99642 9.57595C7.33395 10.0556 7.68286 10.5514 7.74411 11.397C7.7478 11.4472 7.75152 11.4976 7.75152 11.5517C7.75147 12.5795 6.96648 13.4158 6.00146 13.4158Z" fill="white"/>
</svg>
