<svg width="18" height="16" viewBox="0 0 18 16" fill="none" xmlns="http://www.w3.org/2000/svg">
<path d="M2.17159 2.20102C1.80015 2.58179 1.50551 3.03382 1.30449 3.53132C1.10346 4.02882 1 4.56203 1 5.10052C1 5.63901 1.10346 6.17222 1.30449 6.66972C1.50551 7.16722 1.80015 7.61925 2.17159 8.00002L9.00001 15L15.8284 8.00002C16.5786 7.23102 17 6.18804 17 5.10052C17 4.013 16.5786 2.97002 15.8284 2.20102C15.0783 1.43203 14.0609 1.00001 13 1.00001C11.9391 1.00001 10.9217 1.43203 10.1716 2.20102L9.00001 3.40201L7.82845 2.20102C7.45702 1.82025 7.01606 1.51821 6.53076 1.31214C6.04546 1.10606 5.52531 1 5.00002 1C4.47473 1 3.95458 1.10606 3.46928 1.31214C2.98398 1.51821 2.54302 1.82025 2.17159 2.20102V2.20102Z" stroke="#666666" stroke-width="1.45869" stroke-linecap="round" stroke-linejoin="round"/>
</svg>
