<svg width="21" height="18" viewBox="0 0 21 18" fill="none" xmlns="http://www.w3.org/2000/svg">
<path d="M18.8316 7.74961H4.0054L8.54327 2.29961C8.75546 2.04434 8.85754 1.71524 8.82706 1.38471C8.79659 1.05417 8.63604 0.749285 8.38075 0.537112C8.12546 0.324939 7.79633 0.222862 7.46577 0.253336C7.13521 0.283811 6.8303 0.444341 6.61811 0.699612L0.367602 8.19961C0.325549 8.25927 0.287944 8.32194 0.255092 8.38711C0.255092 8.44961 0.255093 8.48711 0.167585 8.54961C0.110923 8.69294 0.0812546 8.8455 0.0800781 8.99961C0.0812546 9.15372 0.110923 9.30629 0.167585 9.44961C0.167585 9.51211 0.167585 9.54961 0.255092 9.61211C0.287944 9.67729 0.325549 9.73996 0.367602 9.79961L6.61811 17.2996C6.73565 17.4407 6.88283 17.5542 7.0492 17.632C7.21557 17.7097 7.39703 17.7499 7.58069 17.7496C7.87278 17.7502 8.15584 17.6485 8.38075 17.4621C8.50734 17.3572 8.61197 17.2283 8.68867 17.0829C8.76536 16.9374 8.81261 16.7783 8.82771 16.6146C8.84281 16.4509 8.82545 16.2858 8.77664 16.1288C8.72783 15.9718 8.64853 15.8259 8.54327 15.6996L4.0054 10.2496H18.8316C19.1631 10.2496 19.4811 10.1179 19.7156 9.8835C19.95 9.64907 20.0817 9.33113 20.0817 8.99961C20.0817 8.66809 19.95 8.35015 19.7156 8.11573C19.4811 7.88131 19.1631 7.74961 18.8316 7.74961Z" fill="#CCCCCC"/>
</svg>
