<svg width="16" height="13" viewBox="0 0 16 13" fill="none" xmlns="http://www.w3.org/2000/svg">
<path d="M10.3444 2.53311C10.3444 3.20493 10.0719 3.84924 9.58695 4.32429C9.10196 4.79934 8.44418 5.06622 7.7583 5.06622C7.07243 5.06622 6.41464 4.79934 5.92965 4.32429C5.44466 3.84924 5.1722 3.20493 5.1722 2.53311C5.1722 1.86129 5.44466 1.21698 5.92965 0.741931C6.41464 0.266881 7.07243 0 7.7583 0C8.44418 0 9.10196 0.266881 9.58695 0.741931C10.0719 1.21698 10.3444 1.86129 10.3444 2.53311ZM14.6546 4.22185C14.6546 4.66973 14.4729 5.09927 14.1496 5.41597C13.8263 5.73267 13.3878 5.91059 12.9305 5.91059C12.4733 5.91059 12.0347 5.73267 11.7114 5.41597C11.3881 5.09927 11.2064 4.66973 11.2064 4.22185C11.2064 3.77397 11.3881 3.34443 11.7114 3.02773C12.0347 2.71103 12.4733 2.53311 12.9305 2.53311C13.3878 2.53311 13.8263 2.71103 14.1496 3.02773C14.4729 3.34443 14.6546 3.77397 14.6546 4.22185ZM11.2064 10.1324C11.2064 9.23668 10.8432 8.3776 10.1965 7.7442C9.54985 7.1108 8.6728 6.75496 7.7583 6.75496C6.8438 6.75496 5.96675 7.1108 5.3201 7.7442C4.67345 8.3776 4.31017 9.23668 4.31017 10.1324V12.6656H11.2064V10.1324ZM4.31017 4.22185C4.31017 4.66973 4.12853 5.09927 3.8052 5.41597C3.48188 5.73267 3.04335 5.91059 2.5861 5.91059C2.12885 5.91059 1.69033 5.73267 1.367 5.41597C1.04368 5.09927 0.862034 4.66973 0.862034 4.22185C0.862034 3.77397 1.04368 3.34443 1.367 3.02773C1.69033 2.71103 2.12885 2.53311 2.5861 2.53311C3.04335 2.53311 3.48188 2.71103 3.8052 3.02773C4.12853 3.34443 4.31017 3.77397 4.31017 4.22185ZM12.9305 12.6656V10.1324C12.9317 9.27396 12.7092 8.42937 12.284 7.6787C12.6662 7.5829 13.0656 7.57387 13.4519 7.65229C13.8382 7.73071 14.2011 7.89452 14.5129 8.13121C14.8247 8.3679 15.0773 8.67123 15.2512 9.01805C15.4251 9.36487 15.5159 9.74603 15.5166 10.1324V12.6656H12.9305ZM3.23263 7.6787C2.80743 8.42939 2.58489 9.27396 2.5861 10.1324V12.6656H2.2906e-07V10.1324C-0.000165914 9.74576 0.0900509 9.36416 0.263737 9.01691C0.437422 8.66966 0.689966 8.36596 1.00201 8.1291C1.31406 7.89224 1.67733 7.7285 2.06398 7.65043C2.45062 7.57236 2.85039 7.58203 3.23263 7.6787Z" fill="#4D4D4D"/>
</svg>
