<svg width="21" height="18" viewBox="0 0 21 18" fill="none" xmlns="http://www.w3.org/2000/svg">
<path d="M1.34321 7.74961H16.1694L11.6315 2.29961C11.4193 2.04434 11.3173 1.71524 11.3477 1.38471C11.3782 1.05417 11.5388 0.749285 11.7941 0.537112C12.0493 0.324939 12.3785 0.222862 12.709 0.253336C13.0396 0.283811 13.3445 0.444341 13.5567 0.699612L19.8072 8.19961C19.8493 8.25927 19.8869 8.32194 19.9197 8.38711C19.9197 8.44961 19.9197 8.48711 20.0072 8.54961C20.0639 8.69294 20.0936 8.8455 20.0947 8.99961C20.0936 9.15372 20.0639 9.30629 20.0072 9.44961C20.0072 9.51211 20.0072 9.54961 19.9197 9.61211C19.8869 9.67729 19.8493 9.73996 19.8072 9.79961L13.5567 17.2996C13.4392 17.4407 13.292 17.5542 13.1256 17.632C12.9592 17.7097 12.7778 17.7499 12.5941 17.7496C12.302 17.7502 12.019 17.6485 11.7941 17.4621C11.6675 17.3572 11.5628 17.2283 11.4861 17.0829C11.4094 16.9374 11.3622 16.7783 11.3471 16.6146C11.332 16.4509 11.3494 16.2858 11.3982 16.1288C11.447 15.9718 11.5263 15.8259 11.6315 15.6996L16.1694 10.2496H1.34321C1.01166 10.2496 0.693689 10.1179 0.459251 9.8835C0.224812 9.64907 0.0931053 9.33113 0.0931053 8.99961C0.0931053 8.66809 0.224812 8.35015 0.459251 8.11573C0.693689 7.88131 1.01166 7.74961 1.34321 7.74961Z" fill="white"/>
</svg>
